<svg xmlns="http://www.w3.org/2000/svg" xmlns:xlink="http://www.w3.org/1999/xlink" viewBox="0 0 719 1129"><defs><style>.cls-1,.cls-3{fill:#494f52;}.cls-2{fill:#e6e6e6;}.cls-3{font-size:120px;font-family:Quicksand-Bold, Quicksand;font-weight:700;}</style><symbol id="Card-Spade" data-name="Card-Spade" viewBox="0 0 371.96 427.18"><path class="cls-1" d="M335.86,146.41C254.21,33.79,184.17,0,184.17,0S117.75,33.79,36.11,146.41,29.3,337.87,83.73,349.14c24.72,5.12,53.67-2.68,76.91-21l-17.19,99h84l-17.35-103c23.45,19,53,30.14,78.12,24.93C342.66,337.87,417.5,259,335.86,146.41Z"/></symbol></defs><title>14s</title><g id="Layer_2" data-name="Layer 2"><g id="Layer_1-2" data-name="Layer 1"><rect class="cls-2" width="719" height="1129"/><text class="cls-3" transform="translate(33.34 120.44)">A</text><text class="cls-3" transform="translate(685.12 1005.41) rotate(180)">A</text><use width="371.96" height="427.18" transform="translate(172.87 351.92)" xlink:href="#Card-Spade"/><use width="371.96" height="427.18" transform="translate(24.56 163.55) scale(0.25)" xlink:href="#Card-Spade"/><use width="371.96" height="427.18" transform="translate(693.99 968) rotate(180) scale(0.25)" xlink:href="#Card-Spade"/></g></g></svg>