<svg xmlns="http://www.w3.org/2000/svg" viewBox="0 0 269.44 276.08"><defs><style>.cls-1{fill:#fff;}</style></defs><title>logout</title><g id="Layer_2" data-name="Layer 2"><g id="Layer_1-2" data-name="Layer 1"><path class="cls-1" d="M163.64,221.22h15.7a56.45,56.45,0,0,1-56.27,54.86l-66.77-.24A56.43,56.43,0,0,1,0,219.42L.24,56.31A56.55,56.55,0,0,1,56.59,0l66.77.3a56.33,56.33,0,0,1,56.22,54.56H163.81A40.7,40.7,0,0,0,123.32,16l-66.66-.24A40.64,40.64,0,0,0,16,56.29l-.24,163.07a40.8,40.8,0,0,0,40.65,40.72l66.65.24A40.65,40.65,0,0,0,163.64,221.22Z"/><polygon class="cls-1" points="231.94 170.95 231.94 147.76 89.52 147.76 89.52 128.31 231.94 128.31 231.94 105.02 269.44 138.01 231.94 170.95"/></g></g></svg>