<svg xmlns="http://www.w3.org/2000/svg" xmlns:xlink="http://www.w3.org/1999/xlink" viewBox="0 0 719 1129"><defs><style>.cls-1,.cls-3{fill:#c21b1f;}.cls-2{fill:#fff;}.cls-3{font-size:120px;font-family:Quicksand-Bold, Quicksand;font-weight:700;}</style><symbol id="Card-Diamond" data-name="Card-Diamond" viewBox="0 0 400 428.29"><path class="cls-1" d="M204.25,1.79,398.71,210.94a4.62,4.62,0,0,1,0,6.41L204.25,426.51a6,6,0,0,1-8.5,0L1.29,217.35a4.62,4.62,0,0,1,0-6.41L195.75,1.79A6,6,0,0,1,204.25,1.79Z"/></symbol></defs><title>12d</title><g id="Layer_2" data-name="Layer 2"><g id="Layer_1-2" data-name="Layer 1"><rect class="cls-2" width="719" height="1129"/><text class="cls-3" transform="translate(21.46 120.44)">Q</text><path class="cls-1" d="M363.25,351.91,557.71,561.06a4.62,4.62,0,0,1,0,6.41L363.25,776.62a6,6,0,0,1-8.5,0L160.29,567.47a4.62,4.62,0,0,1,0-6.41L354.75,351.91A6,6,0,0,1,363.25,351.91Z"/><use width="400" height="428.29" transform="translate(159 350.12)" xlink:href="#Card-Diamond"/><text class="cls-3" transform="translate(697 1005.41) rotate(180)">Q</text><use width="400" height="428.29" transform="translate(24 160.81) scale(0.24 0.24)" xlink:href="#Card-Diamond"/><use width="400" height="428.29" transform="translate(598 861.81) scale(0.24 0.24)" xlink:href="#Card-Diamond"/></g></g></svg>