<svg xmlns="http://www.w3.org/2000/svg" viewBox="0 0 719 1129"><defs><style>.cls-1{fill:#fff;}.cls-2{font-size:120px;font-family:Quicksand-Bold, Quicksand;font-weight:700;}.cls-2,.cls-3{fill:#c21b1f;}</style></defs><title>3d</title><g id="Layer_2" data-name="Layer 2"><g id="Layer_1-2" data-name="Layer 1"><rect class="cls-1" width="719" height="1129"/><text class="cls-2" transform="translate(35.5 120.44)">3</text><path class="cls-3" d="M363.25,351.91,557.71,561.06a4.62,4.62,0,0,1,0,6.41L363.25,776.62a6,6,0,0,1-8.5,0L160.29,567.47a4.62,4.62,0,0,1,0-6.41L354.75,351.91A6,6,0,0,1,363.25,351.91Z"/><path class="cls-3" d="M363.25,351.91,557.71,561.06a4.62,4.62,0,0,1,0,6.41L363.25,776.62a6,6,0,0,1-8.5,0L160.29,567.47a4.62,4.62,0,0,1,0-6.41L354.75,351.91A6,6,0,0,1,363.25,351.91Z"/><text class="cls-2" transform="translate(682.96 1005.41) rotate(180)">3</text><path class="cls-3" d="M72.85,150.52l56,60.27a1.33,1.33,0,0,1,0,1.85l-56,60.27a1.71,1.71,0,0,1-2.45,0l-56-60.27a1.33,1.33,0,0,1,0-1.85l56-60.27A1.71,1.71,0,0,1,72.85,150.52Z"/><path class="cls-3" d="M647.85,852.52l56,60.27a1.33,1.33,0,0,1,0,1.85l-56,60.27a1.71,1.71,0,0,1-2.45,0l-56-60.27a1.33,1.33,0,0,1,0-1.85l56-60.27A1.71,1.71,0,0,1,647.85,852.52Z"/></g></g></svg>